# xmcd
# 
# Track frame offsets:
#     150
#     14420
#     27095
#     40557
# 
# Disc length: 781
# 
# Revision: 0
# Processed by: cddbd v1.5.2PL0 Copyright (c) Steve Scherf et al.
# Submitted via: fre:ac v1.0.17
# 
DISCID=21030b04
DTITLE=NOBBY TÅFJUTT BAND -  Äggfest I Noppikoski
DYEAR=0
DGENRE=Punk
TTITLE0=Walking Down The Moraway
TTITLE1=Kul Att Vara Full
TTITLE2=Hogans Höfter
TTITLE3=Kul Att Vara Ful
EXTD=
EXTT0=
EXTT1=
EXTT2=
EXTT3=
PLAYORDER=
